<?xml version="1.0" encoding="utf-8" ?>
<svg xmlns="http://www.w3.org/2000/svg" xmlns:ev="http://www.w3.org/2001/xml-events" xmlns:xlink="http://www.w3.org/1999/xlink" baseProfile="full" height="53px" version="1.1" viewBox="0 0 52 53" width="52px">
  <defs/>
  <g id="xecf0f1_r236_g240_b241_a1.0">
    <path d="M 2,18 3,18 3,15 4,15 4,12 5,12 5,10 6,10 6,9 7,9 7,8 8,8 8,7 8,6 9,6 9,5 11,5 11,4 12,4 12,3 14,3 14,2 18,2 18,0 21,0 24,0 24,2 25,2 26,2 26,3 27,3 28,3 28,4 29,4 29,5 31,5 31,6 32,6 32,7 33,7 33,8 34,8 34,9 34,10 33,10 33,11 33,14 32,14 32,18 32,22 30,22 30,23 24,23 24,24 20,24 19,24 19,25 18,25 18,26 17,26 17,27 16,27 16,30 16,34 17,34 17,37 18,37 18,38 19,38 19,40 20,40 20,42 21,42 21,50 20,50 20,51 13,51 13,50 9,50 9,49 6,49 6,48 5,48 5,47 2,47 2,46 1,46 1,40 1,23 2,23 z M 3,38 4,38 4,39 5,39 5,37 6,37 6,34 5,34 5,35 4,35 4,37 3,37 z M 22,7 22,8 23,8 23,10 27,10 27,9 28,9 28,6 27,6 27,5 23,5 23,6 25,6 25,7 z M 16,40 14,40 14,41 15,41 15,44 17,44 17,41 16,41 z M 9,42 9,43 8,43 8,44 8,45 9,45 10,45 10,44 11,44 11,43 11,42 10,42 z" fill="#ecf0f1" fill-opacity="1.0" id="xecf0f1_r236_g240_b241_a1.0_shape1"/>
  </g>
  <g id="xf29c1f_r242_g156_b31_a1.0">
    <path d="M 35,8 35,9 36,9 36,10 37,10 37,11 39,11 39,13 40,13 40,14 41,14 41,16 41,18 43,18 43,16 44,16 44,17 46,17 46,18 47,18 47,19 48,19 48,20 49,20 49,21 50,21 50,22 47,22 47,21 45,21 44,21 44,20 43,20 37,20 34,20 34,19 32,19 32,16 33,16 33,10 34,10 34,8 z" fill="#f29c1f" fill-opacity="1.0" id="xf29c1f_r242_g156_b31_a1.0_shape1"/>
    <path d="M 50,22 52,22 52,23 50,23 z" fill="#f29c1f" fill-opacity="1.0" id="xf29c1f_r242_g156_b31_a1.0_shape2"/>
    <path d="M 43,16 42,16 42,15 43,15 z" fill="#f29c1f" fill-opacity="1.0" id="xf29c1f_r242_g156_b31_a1.0_shape3"/>
  </g>
  <g id="xecf0f1_r236_g240_b241_a0.7490196078431373">
    <path d="M 3,11 4,11 4,9 5,9 5,8 6,8 6,7 7,7 7,5 9,5 9,6 8,6 8,8 7,8 7,9 6,9 6,10 5,10 5,11 5,12 4,12 4,13 4,15 3,15 3,17 3,18 2,18 2,19 2,23 1,23 1,25 1,46 2,46 2,47 5,47 5,48 6,48 6,49 4,49 4,48 1,48 1,47 0,47 0,22 1,22 1,17 2,17 2,14 3,14 z" fill="#ecf0f1" fill-opacity="0.7490196078431373" id="xecf0f1_r236_g240_b241_a0.7490196078431373_shape1"/>
    <path d="M 26,3 26,2 24,2 24,1 27,1 27,2 29,2 29,3 30,3 30,4 32,4 32,5 33,5 33,6 34,6 34,7 35,7 35,8 33,8 33,7 32,7 32,6 31,6 31,5 29,5 29,4 28,4 28,3 z" fill="#ecf0f1" fill-opacity="0.7490196078431373" id="xecf0f1_r236_g240_b241_a0.7490196078431373_shape2"/>
    <path d="M 9,49 9,50 13,50 13,51 14,51 14,52 12,52 12,51 10,51 8,51 8,50 6,50 6,49 z" fill="#ecf0f1" fill-opacity="0.7490196078431373" id="xecf0f1_r236_g240_b241_a0.7490196078431373_shape3"/>
    <path d="M 9,5 9,4 10,4 10,3 11,3 11,2 14,2 14,3 12,3 12,4 11,4 11,5 10,5 z" fill="#ecf0f1" fill-opacity="0.7490196078431373" id="xecf0f1_r236_g240_b241_a0.7490196078431373_shape4"/>
    <path d="M 14,2 14,1 17,1 17,0 18,0 18,2 z" fill="#ecf0f1" fill-opacity="0.7490196078431373" id="xecf0f1_r236_g240_b241_a0.7490196078431373_shape5"/>
  </g>
  <g id="xecf0f1_r236_g240_b241_a0.5607843137254902">
    <path d="M 17,27 17,26 18,26 18,25 19,25 19,24 24,24 24,25 21,25 20,25 20,26 19,26 19,27 18,27 18,28 17,28 17,33 18,33 18,36 19,36 19,37 20,37 20,39 21,39 21,41 22,41 22,44 22,47 22,51 21,51 21,52 15,52 15,51 20,51 20,50 21,50 21,47 21,42 20,42 20,40 19,40 19,38 18,38 18,37 17,37 17,34 16,34 16,27 z" fill="#ecf0f1" fill-opacity="0.5607843137254902" id="xecf0f1_r236_g240_b241_a0.5607843137254902_shape1"/>
    <path d="M 24,23 30,23 30,24 24,24 z" fill="#ecf0f1" fill-opacity="0.5607843137254902" id="xecf0f1_r236_g240_b241_a0.5607843137254902_shape2"/>
    <path d="M 30,22 32,22 32,23 30,23 z" fill="#ecf0f1" fill-opacity="0.5607843137254902" id="xecf0f1_r236_g240_b241_a0.5607843137254902_shape3"/>
  </g>
  <g id="xe57e25_r229_g126_b37_a1.0">
    <path d="M 50,23 49,23 49,24 47,24 47,23 40,23 40,22 32,22 32,19 33,19 33,20 34,20 40,20 43,20 43,21 45,21 47,21 47,22 49,22 50,22 z" fill="#e57e25" fill-opacity="1.0" id="xe57e25_r229_g126_b37_a1.0_shape1"/>
    <path d="M 41,16 43,16 43,18 41,18 z" fill="#e57e25" fill-opacity="1.0" id="xe57e25_r229_g126_b37_a1.0_shape2"/>
  </g>
  <g id="xf29c1f_r242_g156_b31_a0.7568627450980392">
    <path d="M 46,17 44,17 44,16 43,16 43,15 44,15 45,15 45,16 46,16 47,16 47,17 48,17 48,18 49,18 49,19 50,19 50,20 51,20 51,21 52,21 52,22 50,22 50,21 49,21 49,20 48,20 48,19 47,19 47,18 46,18 z" fill="#f29c1f" fill-opacity="0.7568627450980392" id="xf29c1f_r242_g156_b31_a0.7568627450980392_shape1"/>
    <path d="M 41,15 41,14 40,14 40,13 39,13 39,12 39,11 40,11 40,12 41,12 41,13 42,13 42,14 43,14 43,15 42,15 z" fill="#f29c1f" fill-opacity="0.7568627450980392" id="xf29c1f_r242_g156_b31_a0.7568627450980392_shape2"/>
    <path d="M 37,8 37,9 38,9 38,10 39,10 39,11 37,11 37,10 36,10 36,9 35,9 35,8 z" fill="#f29c1f" fill-opacity="0.7568627450980392" id="xf29c1f_r242_g156_b31_a0.7568627450980392_shape3"/>
  </g>
  <g id="x3f5c6c_r63_g92_b108_a1.0">
    <path d="M 27,9 27,10 24,10 24,9 23,9 23,7 25,7 25,5 27,5 27,6 28,6 28,7 28,9 z" fill="#3f5c6c" fill-opacity="1.0" id="x3f5c6c_r63_g92_b108_a1.0_shape1"/>
    <path d="M 23,5 24,5 24,6 23,6 z" fill="#3f5c6c" fill-opacity="1.0" id="x3f5c6c_r63_g92_b108_a1.0_shape2"/>
  </g>
  <g id="xbdc3c7_r189_g195_b199_a1.0">
    <path d="M 15,40 16,40 16,41 17,41 17,44 15,44 z" fill="#bdc3c7" fill-opacity="1.0" id="xbdc3c7_r189_g195_b199_a1.0_shape1"/>
    <path d="M 4,39 4,35 6,35 6,37 5,37 5,39 z" fill="#bdc3c7" fill-opacity="1.0" id="xbdc3c7_r189_g195_b199_a1.0_shape2"/>
    <path d="M 9,44 9,42 11,42 11,44 10,44 10,45 8,45 8,44 z" fill="#bdc3c7" fill-opacity="1.0" id="xbdc3c7_r189_g195_b199_a1.0_shape3"/>
  </g>
  <g id="xe57e25_r229_g126_b37_a0.49411764705882355">
    <path d="M 40,22 40,23 34,23 32,23 32,22 34,22 z" fill="#e57e25" fill-opacity="0.49411764705882355" id="xe57e25_r229_g126_b37_a0.49411764705882355_shape1"/>
    <path d="M 40,24 40,23 45,23 47,23 47,24 45,24 z" fill="#e57e25" fill-opacity="0.49411764705882355" id="xe57e25_r229_g126_b37_a0.49411764705882355_shape2"/>
    <path d="M 52,24 49,24 49,23 52,23 z" fill="#e57e25" fill-opacity="0.49411764705882355" id="xe57e25_r229_g126_b37_a0.49411764705882355_shape3"/>
  </g>
  <g id="x7a4314_r122_g67_b20_a0.0784313725490196">
    <path d="M 40,24 39,24 39,23 40,23 z" fill="#7a4314" fill-opacity="0.0784313725490196" id="x7a4314_r122_g67_b20_a0.0784313725490196_shape1"/>
    <path d="M 49,25 48,25 48,24 49,24 z" fill="#7a4314" fill-opacity="0.0784313725490196" id="x7a4314_r122_g67_b20_a0.0784313725490196_shape2"/>
  </g>
  <g id="x6a6c6d_r106_g108_b109_a0.23529411764705882">
    <path d="M 25,1 24,1 24,0 25,0 z" fill="#6a6c6d" fill-opacity="0.23529411764705882" id="x6a6c6d_r106_g108_b109_a0.23529411764705882_shape1"/>
  </g>
  <g id="x797b7c_r121_g123_b124_a0.2901960784313726">
    <path d="M 14,1 14,2 13,2 13,1 z" fill="#797b7c" fill-opacity="0.2901960784313726" id="x797b7c_r121_g123_b124_a0.2901960784313726_shape1"/>
  </g>
  <g id="xe4e8e8_r228_g232_b232_a0.7176470588235294">
    <path d="M 9,4 9,5 8,5 8,4 z" fill="#e4e8e8" fill-opacity="0.7176470588235294" id="xe4e8e8_r228_g232_b232_a0.7176470588235294_shape1"/>
  </g>
  <g id="x8b9ca6_r139_g156_b166_a1.0">
    <path d="M 25,5 25,6 24,6 24,5 z" fill="#8b9ca6" fill-opacity="1.0" id="x8b9ca6_r139_g156_b166_a1.0_shape1"/>
  </g>
  <g id="xbac5ca_r186_g197_b202_a1.0">
    <path d="M 23,8 22,8 22,7 23,7 z" fill="#bac5ca" fill-opacity="1.0" id="xbac5ca_r186_g197_b202_a1.0_shape1"/>
  </g>
  <g id="xc7801a_r199_g128_b26_a0.5843137254901961">
    <path d="M 36,8 35,8 35,7 36,7 z" fill="#c7801a" fill-opacity="0.5843137254901961" id="xc7801a_r199_g128_b26_a0.5843137254901961_shape1"/>
  </g>
  <g id="xcfd7db_r207_g215_b219_a1.0">
    <path d="M 23,10 23,9 24,9 24,10 z" fill="#cfd7db" fill-opacity="1.0" id="xcfd7db_r207_g215_b219_a1.0_shape1"/>
  </g>
  <g id="xa86c16_r168_g108_b22_a0.4627450980392157">
    <path d="M 39,10 40,10 40,11 39,11 z" fill="#a86c16" fill-opacity="0.4627450980392157" id="xa86c16_r168_g108_b22_a0.4627450980392157_shape1"/>
  </g>
  <g id="xecefef_r236_g239_b239_a1.0">
    <path d="M 32,15 32,14 33,14 33,15 z" fill="#ecefef" fill-opacity="1.0" id="xecefef_r236_g239_b239_a1.0_shape1"/>
  </g>
  <g id="xe9961e_r233_g150_b30_a0.7176470588235294">
    <path d="M 43,14 44,14 44,15 43,15 z" fill="#e9961e" fill-opacity="0.7176470588235294" id="xe9961e_r233_g150_b30_a0.7176470588235294_shape1"/>
  </g>
  <g id="xf29c20_r242_g156_b32_a1.0">
    <path d="M 32,15 33,15 33,16 32,16 z" fill="#f29c20" fill-opacity="1.0" id="xf29c20_r242_g156_b32_a1.0_shape1"/>
  </g>
  <g id="xe57e24_r229_g126_b36_a1.0">
    <path d="M 41,15 42,15 42,16 41,16 z" fill="#e57e24" fill-opacity="1.0" id="xe57e24_r229_g126_b36_a1.0_shape1"/>
  </g>
  <g id="xaf651b_r175_g101_b27_a1.0">
    <path d="M 33,20 33,19 34,19 34,20 z" fill="#af651b" fill-opacity="1.0" id="xaf651b_r175_g101_b27_a1.0_shape1"/>
  </g>
  <g id="xb56d1b_r181_g109_b27_a1.0">
    <path d="M 44,20 44,21 43,21 43,20 z" fill="#b56d1b" fill-opacity="1.0" id="xb56d1b_r181_g109_b27_a1.0_shape1"/>
  </g>
  <g id="x3f4040_r63_g64_b64_a0.00392156862745098">
    <path d="M 31,23 31,24 30,24 30,23 z" fill="#3f4040" fill-opacity="0.00392156862745098" id="x3f4040_r63_g64_b64_a0.00392156862745098_shape1"/>
  </g>
  <g id="x696a6b_r105_g106_b107_a0.050980392156862744">
    <path d="M 25,25 24,25 24,24 25,24 z" fill="#696a6b" fill-opacity="0.050980392156862744" id="x696a6b_r105_g106_b107_a0.050980392156862744_shape1"/>
  </g>
  <g id="x6b3b11_r107_g59_b17_a0.050980392156862744">
    <path d="M 47,24 47,25 46,25 46,24 z" fill="#6b3b11" fill-opacity="0.050980392156862744" id="x6b3b11_r107_g59_b17_a0.050980392156862744_shape1"/>
  </g>
  <g id="x894c16_r137_g76_b22_a0.11764705882352941">
    <path d="M 47,24 48,24 48,25 47,25 z" fill="#894c16" fill-opacity="0.11764705882352941" id="x894c16_r137_g76_b22_a0.11764705882352941_shape1"/>
  </g>
  <g id="x47270b_r71_g39_b11_a0.00784313725490196">
    <path d="M 50,25 49,25 49,24 50,24 z" fill="#47270b" fill-opacity="0.00784313725490196" id="x47270b_r71_g39_b11_a0.00784313725490196_shape1"/>
  </g>
  <g id="xdce0e2_r220_g224_b226_a1.0">
    <path d="M 6,35 5,35 5,34 6,34 z" fill="#dce0e2" fill-opacity="1.0" id="xdce0e2_r220_g224_b226_a1.0_shape1"/>
  </g>
  <g id="xd5dadc_r213_g218_b220_a1.0">
    <path d="M 4,38 3,38 3,37 4,37 z" fill="#d5dadc" fill-opacity="1.0" id="xd5dadc_r213_g218_b220_a1.0_shape1"/>
  </g>
  <g id="xbec5c9_r190_g197_b201_a1.0">
    <path d="M 14,41 14,40 15,40 15,41 z" fill="#bec5c9" fill-opacity="1.0" id="xbec5c9_r190_g197_b201_a1.0_shape1"/>
  </g>
  <g id="xe6eaec_r230_g234_b236_a1.0">
    <path d="M 9,44 8,44 8,43 9,43 z" fill="#e6eaec" fill-opacity="1.0" id="xe6eaec_r230_g234_b236_a1.0_shape1"/>
  </g>
  <g id="xe0e4e5_r224_g228_b229_a0.7019607843137254">
    <path d="M 5,50 5,49 6,49 6,50 z" fill="#e0e4e5" fill-opacity="0.7019607843137254" id="xe0e4e5_r224_g228_b229_a0.7019607843137254_shape1"/>
  </g>
  <g id="xecf0f1_r236_g240_b241_a0.4196078431372549">
    <path d="M 14,51 15,51 15,52 14,52 z" fill="#ecf0f1" fill-opacity="0.4196078431372549" id="xecf0f1_r236_g240_b241_a0.4196078431372549_shape1"/>
  </g>
  <g id="x9da0a1_r157_g160_b161_a0.08627450980392157">
    <path d="M 15,53 14,53 14,52 15,52 z" fill="#9da0a1" fill-opacity="0.08627450980392157" id="x9da0a1_r157_g160_b161_a0.08627450980392157_shape1"/>
  </g>
</svg>
